<svg width="131" height="52" viewBox="0 0 131 52" fill="none" xmlns="http://www.w3.org/2000/svg">
<path d="M131 0H0V52H131V0Z" fill="#ED1D24"/>
<path d="M110.859 12.118V4.15887H88.4033L84.7103 30.7489L81.0559 4.159H72.9579L73.865 11.2541C72.9297 9.43648 69.6142 4.159 62.3179 4.159C62.2698 4.1559 54.2089 4.159 54.2089 4.159L54.1778 42.916L48.2754 4.159L37.6697 4.15292L31.5636 44.3105L31.5667 4.15874H21.4164L17.7572 26.7153L14.193 4.159H4.03943V47.8169H12.0351V26.7739L15.6722 47.8163H19.923L23.509 26.7739V47.8163H38.9234L39.8588 41.0985H46.0648L46.9969 47.8163L62.1302 47.8255H62.1425V47.8163H62.1519H62.1614V33.6449L64.0166 33.3784L67.8574 47.8255H67.8668H75.6757H75.6849L75.6818 47.8163H75.6956H75.7051L70.6648 30.8836C73.2191 29.0203 76.1031 24.2883 75.3355 19.7615V19.7585C75.3447 19.8197 80.0929 47.8443 80.0929 47.8443L89.4024 47.8163L95.7637 8.24408V47.8165H110.86V39.9645H103.694V29.952H110.86V21.9805H103.694V12.118H110.859ZM40.8006 34.1754L42.9959 15.5109L45.2753 34.1754H40.8006ZM64.0425 25.5572C63.4272 25.8515 62.7856 25.9987 62.161 25.9987V11.9556C62.1719 11.9556 62.1844 11.9528 62.1999 11.9528C62.8261 11.9497 67.4948 12.1396 67.4948 18.9005C67.4948 22.4371 65.9069 24.6654 64.0425 25.5572ZM126.97 39.9585V47.8103H112.243V4.15292H120.172V39.9585H126.97Z" fill="white"/>
</svg>
