<svg width="108" height="108" viewBox="0 0 108 108" fill="none" xmlns="http://www.w3.org/2000/svg">
<circle cx="5" cy="19" r="5" fill="#EE5514" fill-opacity="0.1"/>
<circle cx="61" cy="19" r="5" fill="#EE5514" fill-opacity="0.1"/>
<circle cx="33" cy="19" r="5" fill="#EE5514" fill-opacity="0.1"/>
<circle cx="89" cy="19" r="5" fill="#EE5514" fill-opacity="0.1"/>
<circle cx="19" cy="19" r="5" fill="#EE5514" fill-opacity="0.1"/>
<circle cx="75" cy="19" r="5" fill="#EE5514" fill-opacity="0.1"/>
<circle cx="47" cy="19" r="5" fill="#EE5514" fill-opacity="0.1"/>
<circle cx="103" cy="19" r="5" fill="#EE5514" fill-opacity="0.1"/>
<circle cx="5" cy="47" r="5" fill="#EE5514" fill-opacity="0.1"/>
<circle cx="61" cy="47" r="5" fill="#EE5514" fill-opacity="0.1"/>
<circle cx="33" cy="47" r="5" fill="#EE5514" fill-opacity="0.1"/>
<circle cx="89" cy="47" r="5" fill="#EE5514" fill-opacity="0.1"/>
<circle cx="19" cy="47" r="5" fill="#EE5514" fill-opacity="0.1"/>
<circle cx="75" cy="47" r="5" fill="#EE5514" fill-opacity="0.1"/>
<circle cx="47" cy="47" r="5" fill="#EE5514" fill-opacity="0.1"/>
<circle cx="103" cy="47" r="5" fill="#EE5514" fill-opacity="0.1"/>
<circle cx="5" cy="75" r="5" fill="#EE5514" fill-opacity="0.1"/>
<circle cx="61" cy="75" r="5" fill="#EE5514" fill-opacity="0.1"/>
<circle cx="33" cy="75" r="5" fill="#EE5514" fill-opacity="0.1"/>
<circle cx="89" cy="75" r="5" fill="#EE5514" fill-opacity="0.1"/>
<circle cx="19" cy="75" r="5" fill="#EE5514" fill-opacity="0.1"/>
<circle cx="75" cy="75" r="5" fill="#EE5514" fill-opacity="0.1"/>
<circle cx="47" cy="75" r="5" fill="#EE5514" fill-opacity="0.1"/>
<circle cx="103" cy="75" r="5" fill="#EE5514" fill-opacity="0.1"/>
<circle cx="5" cy="103" r="5" fill="#EE5514" fill-opacity="0.1"/>
<circle cx="61" cy="103" r="5" fill="#EE5514" fill-opacity="0.1"/>
<circle cx="33" cy="103" r="5" fill="#EE5514" fill-opacity="0.1"/>
<circle cx="89" cy="103" r="5" fill="#EE5514" fill-opacity="0.1"/>
<circle cx="19" cy="103" r="5" fill="#EE5514" fill-opacity="0.1"/>
<circle cx="75" cy="103" r="5" fill="#EE5514" fill-opacity="0.1"/>
<circle cx="47" cy="103" r="5" fill="#EE5514" fill-opacity="0.1"/>
<circle cx="103" cy="103" r="5" fill="#EE5514" fill-opacity="0.1"/>
<circle cx="5" cy="5" r="5" fill="#EE5514" fill-opacity="0.1"/>
<circle cx="61" cy="5" r="5" fill="#EE5514" fill-opacity="0.1"/>
<circle cx="33" cy="5" r="5" fill="#EE5514" fill-opacity="0.1"/>
<circle cx="89" cy="5" r="5" fill="#EE5514" fill-opacity="0.1"/>
<circle cx="19" cy="5" r="5" fill="#EE5514" fill-opacity="0.1"/>
<circle cx="75" cy="5" r="5" fill="#EE5514" fill-opacity="0.1"/>
<circle cx="47" cy="5" r="5" fill="#EE5514" fill-opacity="0.1"/>
<circle cx="103" cy="5" r="5" fill="#EE5514" fill-opacity="0.1"/>
<circle cx="5" cy="33" r="5" fill="#EE5514" fill-opacity="0.1"/>
<circle cx="61" cy="33" r="5" fill="#EE5514" fill-opacity="0.1"/>
<circle cx="33" cy="33" r="5" fill="#EE5514" fill-opacity="0.1"/>
<circle cx="89" cy="33" r="5" fill="#EE5514" fill-opacity="0.1"/>
<circle cx="19" cy="33" r="5" fill="#EE5514" fill-opacity="0.1"/>
<circle cx="75" cy="33" r="5" fill="#EE5514" fill-opacity="0.1"/>
<circle cx="47" cy="33" r="5" fill="#EE5514" fill-opacity="0.1"/>
<circle cx="103" cy="33" r="5" fill="#EE5514" fill-opacity="0.1"/>
<circle cx="5" cy="61" r="5" fill="#EE5514" fill-opacity="0.1"/>
<circle cx="61" cy="61" r="5" fill="#EE5514" fill-opacity="0.1"/>
<circle cx="33" cy="61" r="5" fill="#EE5514" fill-opacity="0.1"/>
<circle cx="89" cy="61" r="5" fill="#EE5514" fill-opacity="0.1"/>
<circle cx="19" cy="61" r="5" fill="#EE5514" fill-opacity="0.1"/>
<circle cx="75" cy="61" r="5" fill="#EE5514" fill-opacity="0.1"/>
<circle cx="47" cy="61" r="5" fill="#EE5514" fill-opacity="0.1"/>
<circle cx="103" cy="61" r="5" fill="#EE5514" fill-opacity="0.1"/>
<circle cx="5" cy="89" r="5" fill="#EE5514" fill-opacity="0.1"/>
<circle cx="61" cy="89" r="5" fill="#EE5514" fill-opacity="0.1"/>
<circle cx="33" cy="89" r="5" fill="#EE5514" fill-opacity="0.1"/>
<circle cx="89" cy="89" r="5" fill="#EE5514" fill-opacity="0.1"/>
<circle cx="19" cy="89" r="5" fill="#EE5514" fill-opacity="0.1"/>
<circle cx="75" cy="89" r="5" fill="#EE5514" fill-opacity="0.1"/>
<circle cx="47" cy="89" r="5" fill="#EE5514" fill-opacity="0.1"/>
<circle cx="103" cy="89" r="5" fill="#EE5514" fill-opacity="0.1"/>
</svg>
